<svg width="195" height="71" viewBox="0 0 195 71" fill="none" xmlns="http://www.w3.org/2000/svg">
<path d="M188.241 44.0468C184.324 47.5622 174.479 56.4149 163.711 57.5582C163.627 56.5763 163.575 55.3299 163.6 53.8733C166.722 51.394 169.836 48.6655 172.753 45.8042C179.082 39.609 184.152 33.2162 187.83 26.81C192.293 19.0212 194.544 11.4379 194.506 4.25654L188.417 0.613511C180.975 4.66529 174.627 9.77946 169.546 15.8121C165.25 20.9058 161.856 26.6795 159.441 32.9505C157.193 38.8143 156.017 44.5765 155.562 49.5681C151.734 52.3876 148.217 54.546 145.463 55.9464C145.592 46.0839 147.58 34.3765 148.634 28.2159L143.108 23.613C136.842 25.9792 128.096 37.9324 117.334 53.3713L116.643 30.5135L110.489 27.011C101.603 32.0355 95.9966 40.7462 91.412 49.5232C91.2398 45.6459 91.3629 41.9677 91.763 38.3367L84.8638 34.8013C79.0451 40.1213 74.2421 46.2287 69.888 52.5999C70.6166 43.4264 71.7044 34.2837 73.1797 25.1985L143.946 19.8855L143.324 11.5986L74.6471 16.7654C75.2404 13.5999 75.8754 10.447 76.5525 7.3206L68.9009 4.41805C66.4724 8.85917 64.0164 13.3011 61.5471 17.7573L52.1443 18.4573L52.0968 18.2508L50.3449 18.6365L51.557 26.8362L56.6843 26.4456C52.0821 34.6407 47.4103 42.8102 42.7093 50.9251C42.3154 44.7251 41.8201 35.1726 41.2518 20.4642L34.2501 17.6391C27.264 24.4503 20.9207 32.0185 15.3792 40.1311C13.2818 43.2172 11.2966 46.3693 9.43778 49.6007L9.9257 1.9012L1.64288 1.81863L0.982801 67.5351L8.91414 69.209C14.8409 55.1502 23.2179 41.9326 33.3854 30.5188C33.6593 36.8473 33.918 42.2194 34.1808 46.815C34.4708 51.8534 34.7569 55.852 35.0229 58.728C35.5315 64.162 35.9329 65.5919 37.2507 66.8L43.5872 65.846C50.4927 54.0871 57.3382 42.1636 64.059 30.2162C62.2741 42.7355 61.1674 55.3592 60.7628 67.9616L68.3972 70.2962C72.9423 62.9486 77.5921 55.4177 83.0941 48.7345C83.2431 53.6662 83.8405 58.8479 84.8784 64.4738L92.6149 65.6267C93.5387 63.824 94.4603 61.952 95.342 60.1228C99.1312 52.3821 103.025 44.4441 108.614 38.8398L109.43 65.8398L116.74 68.3644C118.294 66.4733 120.645 63.0883 123.629 58.7968C127.365 53.4149 132.027 46.7294 136.366 41.2461C137.189 40.209 137.946 39.271 138.651 38.4455C137.626 46.0056 136.793 54.9327 137.384 62.1667L142.141 65.9332C145.487 65.4022 150.321 63.0793 155.645 59.6183C155.645 59.6322 155.646 59.6461 155.646 59.6599C155.892 61.4273 156.39 65.1283 159.637 65.8761L160.411 65.9775C161.046 65.9999 161.679 65.9946 162.299 65.9759C176.711 65.5405 188.984 54.5069 193.732 50.2453C194.229 49.8005 194.658 49.4131 194.954 49.1685L189.649 42.784C189.273 43.1143 188.817 43.5163 188.241 44.0468ZM166.084 38.9617C168.538 31.2475 173.78 20.9809 185.045 12.5984C181.819 23.9272 172.814 34.1411 166.993 39.8494C166.458 40.3786 165.922 40.894 165.386 41.3955C165.596 40.5988 165.833 39.7735 166.084 38.9617Z" fill="white"/>
</svg>
