<svg width="198" height="72" viewBox="0 0 198 72" fill="none" xmlns="http://www.w3.org/2000/svg">
<path d="M105.402 6.83163C84.0329 4.71465 28.592 7.49073 9 8.7689C13.893 12.4636 39.796 27.582 53.0371 35.1313C52.8374 36.1897 52.8374 36.1698 52.6377 37.2283C43.0314 38.6462 38.5778 40.3637 29.311 40.5634C33.525 52.9258 35.9415 56.7204 36.5407 71.6391" stroke="white" stroke-width="5.99144" stroke-miterlimit="10"/>
<path d="M117.485 53.6647L116.666 2.03846C116.307 10.1469 122.398 16.8972 127.75 22.9885C136.937 33.4536 148.161 67.465 148.161 67.465L152.575 67.2453L150.498 1" stroke="white" stroke-width="5.99144" stroke-miterlimit="10"/>
<path d="M165.796 1C165.536 23.3681 164.438 44.8374 165.736 65.6876C179.836 62.4722 184.589 59.816 196.472 57.0799" stroke="white" stroke-width="5.99144" stroke-miterlimit="10"/>
<path d="M167.314 34.2325C172.327 32.8944 177.4 31.9558 182.472 31.4165" stroke="white" stroke-width="5.99144" stroke-miterlimit="10"/>
<path d="M53.856 19.3537C59.7475 18.8345 68.3153 18.8545 76.6234 19.2739C83.9929 19.6533 86.8089 29.0599 80.8973 33.4536C71.0714 40.7632 60.2269 47.873 60.0072 52.4065C64.0214 52.5264 82.1156 50.7688 85.6106 51.9671C85.0914 58.1783 84.0528 63.4507 84.0329 68.5235C90.923 69.0028 95.876 63.0913 101.089 58.5178C102.886 64.3695 106.201 69.5221 113.85 68.9629C121.499 68.4037 128.489 63.3709 132.144 56.6206C135.799 49.8702 136.298 41.6618 134.281 34.2724C133.422 31.1169 132.064 28.0014 129.768 25.6648C125.254 21.0713 117.625 20.4921 111.853 23.348C106.081 26.204 102.107 31.9358 100.23 38.1069C99.7504 39.6647 99.3909 41.3223 99.7904 42.8801" stroke="white" stroke-width="5.99144" stroke-miterlimit="10"/>
</svg>
