<svg width="203" height="167" viewBox="0 0 203 167" fill="none" xmlns="http://www.w3.org/2000/svg">
<path d="M94.7563 33.4591C103.161 33.8067 124.694 33.4591 124.694 33.4591C124.694 33.4591 126.882 48.9802 127.087 50.4321C127.66 54.4198 128.559 58.4688 127.925 62.5178C127.169 67.2621 123.917 72.1904 118.171 73.2742C115.594 73.765 112.752 73.2538 110.789 71.7405C100.482 63.7448 121.218 52.3339 127.332 48.878" stroke="white" stroke-width="6.13483" stroke-miterlimit="10"/>
<path d="M133.304 31.3733C137.046 38.776 146.534 59.9616 152.24 66.4236C157.005 57.3032 170.174 36.1584 174.141 29.6759" stroke="white" stroke-width="6.13483" stroke-miterlimit="10"/>
<path d="M153.282 45.054C153.732 42.1297 154.632 46.1377 153.282 30.4734C162.382 30.9233 183.854 29.8191 193.793 28.7762C194.427 40.5755 196.042 52.4362 194.058 63.3971C193.118 68.5708 191.952 73.1515 184.693 74.5216C177.372 75.8918 173.67 68.9184 175.879 63.7038C178.905 56.5669 186.492 51.9659 194.406 49.8596" stroke="white" stroke-width="6.13483" stroke-miterlimit="10"/>
<path d="M3 90.5131C18.0917 136.483 49.2362 124.643 49.2771 111.044C49.318 99.4904 8.88944 85.6053 8.82809 69.5115C8.76674 54.9924 48.3569 46.5264 59.2973 43.7452C59.2973 43.7452 58.9701 62.1701 58.7043 72.5993C81.7508 72.5993 93.6729 52.6407 92.9571 39.5735C92.2823 27.406 92.5277 15.9953 91.8529 3.82787C91.8529 3.82787 55.5755 3.74609 44.0829 3.74609" stroke="white" stroke-width="6.13483" stroke-miterlimit="10"/>
<path d="M89.5213 126.893C90.2779 114.48 84.6543 109.245 84.6543 96.7911C93.2226 95.7891 102.732 100.697 107.844 97.4659" stroke="white" stroke-width="6.13483" stroke-miterlimit="10"/>
<path d="M105.697 86.0551C105.697 86.0551 92.3026 85.4621 86.2905 85.4621C74.1435 85.4621 61.1785 81.3108 58.7246 99.7562C63.6325 118.365 74.3684 126.913 93.3455 126.913L105.697 124.909" stroke="white" stroke-width="6.13483" stroke-miterlimit="10"/>
<path d="M118.151 73.2742C118.11 87.1798 120.134 111.637 117.905 125.87" stroke="white" stroke-width="6.13483" stroke-miterlimit="10"/>
<path d="M132.629 91.5355C133.447 106.382 132.568 147.485 131.627 166.196" stroke="white" stroke-width="6.13483" stroke-miterlimit="10"/>
<path d="M168.988 76.9142C168.702 80.1247 169.192 104.705 169.008 107.936C168.334 119.919 179.703 128.876 191.216 125.502C194.529 124.541 197.801 123.416 200.991 122.148" stroke="white" stroke-width="6.13483" stroke-miterlimit="10"/>
<path d="M168.988 92.558C174.693 90.9629 180.705 90.2882 186.758 90.554" stroke="white" stroke-width="6.13483" stroke-miterlimit="10"/>
<path d="M133.59 91.5355C132.895 93.5805 132.506 96.1366 133.794 97.7521C134.531 98.6928 135.676 99.0609 136.76 99.3063C139.439 99.8789 142.199 99.7357 144.837 98.9791C147.005 98.3452 149.091 97.2614 150.911 95.7891C152.363 94.6234 153.712 93.1306 154.285 91.2288C155.778 86.3209 151.504 81.4948 147.659 80.0838C143.958 78.7342 140.338 80.6769 137.803 83.7239C135.962 85.9324 134.551 88.693 133.59 91.5355Z" stroke="white" stroke-width="6.13483" stroke-miterlimit="10"/>
</svg>
