<svg width="221" height="82" viewBox="0 0 221 82" fill="none" xmlns="http://www.w3.org/2000/svg">
<path d="M3 39.7991C15.3062 37.9671 27.6124 36.1551 39.9186 34.3231C40.8147 34.1837 41.8302 34.0841 42.567 34.6019C43.2042 35.0399 43.483 35.8365 43.722 36.5533C46.1513 43.9211 48.5608 51.269 50.9902 58.6368C52.7824 53.6984 54.8931 48.8595 57.2628 44.1601C58.2982 42.0891 60.648 39.7195 62.4999 41.1134C63.157 41.6112 63.4358 42.4276 63.6946 43.2242C64.9292 47.0275 66.1838 50.8309 67.4184 54.6343C69.9274 48.1227 74.3281 42.348 79.9237 38.1862C80.7999 43.4233 81.6561 48.6405 82.5323 53.8776C86.7937 47.4059 93.3649 42.5073 100.773 40.277C97.4272 41.3922 95.177 45.096 95.7147 48.5807C96.0731 50.8707 98.0246 53.1607 100.315 52.8222C102.246 52.5235 103.441 50.5919 104.257 48.7998C106.408 44.0605 107.742 38.9628 108.2 33.7655C110.052 39.5801 111.884 45.3748 113.736 51.1893C114.054 52.185 114.632 53.3798 115.667 53.3798C116.384 53.3798 116.942 52.7625 117.4 52.2248C121.422 47.3262 125.445 42.4276 129.467 37.5291C129.308 43.8813 130.941 50.2534 134.167 55.7295C147.09 35.5378 147.508 31.2963 153.502 8.07782C146.612 28.17 151.232 32.8296 149.778 54.0369C173.534 55.1321 194.244 51.9859 218 50.811" stroke="white" stroke-width="5.97388" stroke-miterlimit="10" stroke-linecap="round" stroke-linejoin="round"/>
<path d="M21.7183 14.211C26.3381 30.221 28.3692 46.6293 27.7121 62.9778C27.4731 69.2304 26.8558 70.7837 29.1657 76.8173C29.3847 77.4147 29.7034 78.032 30.4003 78.3705C31.3163 78.8086 32.531 78.5696 33.5864 78.3107C48.6206 74.8061 64.5112 73.2329 80.2822 73.6909C81.1584 73.7109 82.1142 73.7308 82.7514 73.2927C83.3886 72.8546 83.1497 71.8589 82.2735 71.8789" stroke="white" stroke-width="5.97388" stroke-miterlimit="10" stroke-linecap="round" stroke-linejoin="round"/>
<path d="M18.333 13.9521C37.091 13.5937 55.8689 13.2552 74.6269 12.8968C73.9698 13.2353 73.2927 13.5937 72.6356 13.9322" stroke="white" stroke-width="5.97388" stroke-miterlimit="10" stroke-linecap="round" stroke-linejoin="round"/>
<path d="M121.582 27.015C121.462 27.712 122.438 28.0306 123.135 28.0107C126.779 27.9509 130.383 26.9951 133.589 25.2627C134.804 24.6056 136.098 23.5303 135.899 22.1762C135.72 20.9416 134.406 20.2446 133.231 19.8464C128.153 18.114 122.478 18.114 117.4 19.8464" stroke="white" stroke-width="5.97388" stroke-miterlimit="10" stroke-linecap="round" stroke-linejoin="round"/>
<path d="M61.7234 21.5389C62.958 22.5147 72.2374 31.4357 72.2374 31.4357C74.0694 29.5838 94.5996 5.01121 96.8299 3C93.8828 3.47791 45.2355 4.0753 43.0649 4.49347C45.5142 6.62415 53.1011 13.1954 54.4551 14.3504C54.4551 14.3504 52.0258 24.8047 52.7825 31.595C58.4975 29.1059 60.0706 27.5925 65.1882 25.1034" stroke="white" stroke-width="5.97388" stroke-miterlimit="10" stroke-linecap="round" stroke-linejoin="round"/>
</svg>
