<svg width="219" height="169" viewBox="0 0 219 169" fill="none" xmlns="http://www.w3.org/2000/svg">
<path fill-rule="evenodd" clip-rule="evenodd" d="M45.7356 145.606L52.9939 148.052C56.9817 141.069 65.3321 123.866 73.1758 100.867C72.117 106.182 71.0992 112.061 70.2814 117.475C68.7009 127.939 66.301 147.043 67.8814 157.468L69.7741 160.244C71.1789 161.06 72.8959 161.079 74.4764 160.302C79.5495 157.798 85.0127 145.761 87.12 140.694C88.2712 137.918 89.5394 134.579 90.8273 130.696C90.9459 133.738 91.0823 136.939 91.2245 140.276V140.278C91.2928 141.881 91.3624 143.516 91.4321 145.179C91.9004 155.721 92.2906 164.826 92.2516 167.66L99.8417 169C100.661 166.67 101.656 161.856 103.022 155.177L103.166 154.482C105.181 144.784 107.884 131.772 111.276 120.834C113.949 112.175 116.329 107.224 118.163 104.39C118.768 109.437 119.314 117.863 119.451 129.318C119.627 145.101 118.846 158.439 117.5 162.516L124.934 164.981C125.539 163.215 126.417 159.371 128.017 152.168L128.074 151.912C130.351 141.723 133.451 127.858 136.973 115.864C138.885 109.34 140.719 104.118 142.416 100.332C142.729 99.6139 143.041 98.9538 143.333 98.3908C145.011 111.709 142.885 136.462 140.407 152.071L146.787 155.624C153.195 150.174 158.536 144.787 163.041 139.479C163.853 141.805 164.764 144.055 165.772 146.227L171.977 147.431C179.176 140.733 184.503 133.22 191.235 122.523L184.62 118.407C179.586 126.386 175.43 132.482 170.689 137.685C170.027 135.845 169.433 133.943 168.906 131.985C180.154 116.349 184.886 101.489 189.225 87.8489C189.381 87.3539 189.542 86.854 189.703 86.354C189.779 86.1175 189.855 85.881 189.931 85.645C189.982 85.4856 190.033 85.3264 190.084 85.1677C190.116 85.0647 190.149 84.9618 190.181 84.8592L182.747 82.4906C182.684 82.6913 182.62 82.8927 182.555 83.0948C182.491 83.2973 182.425 83.5005 182.36 83.7042C182.169 84.3001 181.977 84.8999 181.791 85.4998C178.092 97.1109 174.322 108.943 166.761 121.204C165.021 108.331 165.772 93.8418 169.108 79.1514C169.367 78.0109 169.637 76.8888 169.917 75.7858C177.123 75.4326 184.054 74.4843 190.298 72.5118C196.757 70.4733 202.181 67.5029 206.844 63.4066C211.781 59.0772 215.761 53.6024 219 46.7104L211.937 43.4294C208.122 51.5421 203.24 57.1929 197.013 61.0238C197.255 49.7061 194.835 39.8602 190.123 33.4699L185.128 32.3439C177.311 36.5316 169.223 50.4204 163.923 68.1659C158.866 68.2132 153.399 68.032 147.489 67.6971C123.88 66.3575 107.51 64.2802 93.0516 62.4359C90.0558 62.0535 87.1538 61.6832 84.3057 61.3365C85.163 57.4547 85.9454 53.5928 86.6517 49.7584C89.8127 32.5381 91.4126 15.8031 91.4126 0H83.6079C83.6079 18.9076 81.1772 39.3983 76.4942 60.4421C64.2442 59.1505 52.3217 58.5198 37.3196 59.5243C38.322 46.0236 38.4302 34.0684 36.6041 26.6167L29.014 28.4611C30.688 35.2659 30.4703 47.1042 29.423 60.4247C24.6081 61.4807 19.5578 63.7182 14.6143 67.0176C8.83879 70.8616 3.64868 75.851 0 81.0928L6.41934 85.5192C11.7755 77.8091 20.632 71.2643 28.6934 68.6719C27.5564 80.3638 25.9768 92.6053 24.6044 103.225L24.4237 104.636L24.4234 104.637L24.4232 104.639C23.7097 110.209 23.0384 115.449 22.5166 119.979L30.0481 121.785C34.4773 110.02 40.682 103.768 52.0964 94.6633C52.2716 105.573 49.6864 121.184 47.6977 133.192L47.6868 133.259C47.5851 133.876 47.4837 134.49 47.3833 135.098C46.7516 138.921 46.1565 142.524 45.7356 145.606ZM36.6606 67.3442C35.5923 78.7973 34.056 90.9114 32.6237 102.06C33.209 101.361 33.8139 100.682 34.4578 100.002C39.2577 94.838 45.1307 90.1592 52.9159 84.1214L59.1402 86.4317C60.7791 94.6827 59.5499 107.302 57.7353 119.746C61.0913 111.651 64.6815 102.06 68.096 91.3823C70.5932 83.5796 72.8008 75.7839 74.7101 68.0457C62.6925 66.8078 51.3187 66.2867 36.6606 67.3442ZM82.5393 68.9289C81.2024 74.3986 79.7199 79.8974 78.0948 85.4042L84.3884 88.2178C83.0811 91.1105 80.1934 104.04 78.0081 118.64C76.2715 130.152 75.3154 140.131 75.1983 147.528C76.6617 144.946 78.3983 141.471 80.2324 137.005C83.5298 128.929 87.959 115.631 90.3005 98.0219C90.307 97.9732 90.313 97.9256 90.3186 97.879C90.326 97.8181 90.3327 97.759 90.3392 97.7019V97.7008C90.3575 97.5409 90.3742 97.3956 90.398 97.2648L98.1051 98.4296C98.0661 98.682 98.0271 98.9538 98.0076 99.2062C97.5978 103.749 98.3002 121.94 98.9441 137.238C100.388 130.968 102.027 124.464 103.881 118.504C108.583 103.283 113.285 95.5369 119.1 93.3626L123.295 94.3139C124.407 95.4787 125.48 97.323 126.339 107.011C126.709 111.204 127.002 116.388 127.158 121.998C127.997 118.834 128.856 115.708 129.753 112.699C131.86 105.613 133.831 100.177 135.763 96.0805C138.514 90.2757 141.129 87.2859 144.25 86.3929L148.875 88.5479C151.372 94.1391 152.25 104.856 151.47 120.445C151.08 128.094 150.358 135.918 149.577 142.5C153.763 138.391 157.342 134.338 160.437 130.334C159.143 124.584 158.369 118.459 158.123 112C157.694 100.992 158.865 89.0332 161.499 77.4235C161.61 76.9321 161.724 76.4426 161.839 75.9552C156.927 75.9367 151.96 75.7234 147.06 75.4433C123.178 74.0843 106.651 71.9876 92.076 70.1239C88.7682 69.7018 85.6088 69.2992 82.5393 68.9289ZM172.198 67.8465C178.518 67.3886 184.097 66.4179 189.02 64.7398C189.751 55.6233 188.597 47.3292 185.869 41.5462C181.479 46.0053 176.255 55.275 172.198 67.8465Z" fill="white"/>
<path d="M100.017 53.6413L92.6418 51.0786C95.6856 42.4393 104.661 24.8307 111.822 16.9292L117.617 22.1322C111.432 28.9465 102.807 45.7009 100.017 53.6413Z" fill="white"/>
</svg>
