<svg width="215" height="96" viewBox="0 0 215 96" fill="none" xmlns="http://www.w3.org/2000/svg">
<path d="M1 13.6647C24.7461 13.5249 77.331 17.699 81.7247 32.4979C86.9972 50.1926 39.3452 47.0371 41.4423 56.9629C43.2796 65.6106 72.2782 55.9444 72.7775 66.05C73.137 73.1998 51.9473 79.5906 56.341 88.4979C58.7575 93.4109 74.5949 90.3753 78.3895 89.6363" stroke="white" stroke-width="5.99144" stroke-miterlimit="10"/>
<path d="M203.231 14.7233C194.024 42.963 170.218 83.0058 175.83 89.6363C181.562 96.3867 199.516 87.6192 203.231 84.7433" stroke="white" stroke-width="5.99144" stroke-miterlimit="10"/>
<path d="M172.275 66.2297C167.023 64.4722 160.033 68.3467 157.736 70.224C145.973 79.8103 155.3 95.5878 167.782 91.6135" stroke="white" stroke-width="5.99144" stroke-miterlimit="10"/>
<path d="M139.003 74.0985C138.424 80.2098 138.863 89.0172 143.896 92.6919" stroke="white" stroke-width="5.99144" stroke-miterlimit="10"/>
<path d="M122.487 89.0372C129.836 93.6905 136.706 86.3609 138.444 78.3723C140.281 69.9244 137.585 62.9943 130.935 63.2939C120.909 63.7532 114.478 83.9644 122.487 89.0372Z" stroke="white" stroke-width="5.99144" stroke-miterlimit="10"/>
<path d="M111.482 88.0785C94.8461 94.4893 85.2199 87.7989 88.7348 85.1228C95.4253 80.03 118.313 70.2241 108.766 61.3767C105.072 57.9616 96.4438 60.3981 91.5908 63.8731C87.6564 66.6891 81.9046 72.7404 85.3597 79.0115" stroke="white" stroke-width="5.99144" stroke-miterlimit="10"/>
<path d="M54.4438 3C101.776 5.65621 105.89 52.2697 119.251 45.8988C126.181 42.6035 120.789 24.9886 126.381 22.7119C138.284 17.8388 148.47 49.7332 161.731 48.515C169.559 47.796 162.589 32.0984 173.074 30.0414C179.425 28.8031 192.167 36.1726 213.337 46.458" stroke="white" stroke-width="5.99144" stroke-miterlimit="10"/>
</svg>
