<svg width="159" height="141" viewBox="0 0 159 141" fill="none" xmlns="http://www.w3.org/2000/svg">
<path d="M9.55717 48.1148C9.31231 45.6655 7.12702 43.8797 4.67619 44.1261C2.22535 44.3724 0.437052 46.5576 0.681906 49.0068L9.01543 132.365C9.2254 134.466 10.8808 136.13 12.981 136.352C15.0812 136.574 17.0502 135.293 17.6979 133.283C20.1482 125.681 21.0447 116.349 21.8177 108.303C22.0388 106.002 22.2499 103.804 22.4843 101.783C23.0419 96.9767 23.704 93.2503 24.7033 90.745C25.4967 88.756 26.1368 88.3591 26.4489 88.2732C26.4681 88.292 26.4908 88.3149 26.517 88.3425C26.9009 88.7468 27.472 89.6456 28.0746 91.314C29.2698 94.6225 30.0942 99.5192 30.6565 105.242C31.2111 110.886 31.4819 116.988 31.6979 122.568C31.7244 123.255 31.7502 123.937 31.7758 124.611L31.7759 124.614C31.9535 129.308 32.1167 133.618 32.4257 136.602C32.6554 138.82 34.4888 140.525 36.7182 140.595C38.9475 140.666 40.8871 139.079 41.259 136.881L61.8861 30.4072C62.2968 27.9798 60.6611 25.6806 58.2325 25.2717C55.804 24.8628 53.5023 26.4991 53.0916 28.9265L51.0704 38.6935C46.0926 38.3655 41.548 37.8528 37.3745 37.3656L36.3719 37.2483C35.5806 37.1556 35.026 37.0886 34.6157 37.039C33.9761 36.9617 33.6862 36.9267 33.396 36.9028C33.1563 36.8831 32.916 36.8709 32.4773 36.8486C32.1456 36.8317 31.6999 36.8091 31.056 36.7732C28.5195 36.6315 26.3469 38.5718 26.2035 41.1069C26.0601 43.642 28.0001 45.812 30.5366 45.9537C31.2629 45.9943 31.6833 46.0132 31.9672 46.0259C32.1949 46.0361 32.3349 46.0424 32.4746 46.0528C32.6973 46.0693 32.9192 46.0962 33.4951 46.166C33.9028 46.2154 34.4884 46.2864 35.3761 46.3902L36.3012 46.4984C40.1482 46.9474 44.4616 47.4367 49.19 47.7805L38.7701 98.1333C38.221 94.5103 37.4842 91.1054 36.4643 88.2821C35.6738 86.0936 34.5866 83.8865 32.9883 82.2036C31.27 80.3942 28.8612 79.1221 25.9062 79.3618C20.6933 79.7848 17.9017 83.7297 16.4182 87.4488C15.4612 89.8481 14.8078 92.6948 14.3148 95.7047L9.55717 48.1148Z" fill="white"/>
<path fill-rule="evenodd" clip-rule="evenodd" d="M139.539 0.494411C135.029 0.270397 131.686 3.41259 129.477 6.42322C127.122 9.63298 125.056 14.0192 123.245 18.9482C119.599 28.8697 116.609 42.0513 114.564 55.2898C113.246 63.8192 112.305 72.4766 111.841 80.428C110.012 84.0104 108.188 87.5484 106.402 90.9979L105.963 91.8458C106.119 90.8855 106.265 89.933 106.4 88.9913C107.312 82.6406 107.781 76.4381 107.206 71.4625C106.683 66.9363 105 61.1492 99.419 59.4394C96.2572 58.4707 93.6037 59.9288 91.9515 61.3997C90.3163 62.8554 88.9415 64.8984 87.7724 67.0108C86.3982 69.4942 85.0637 72.5323 83.7834 75.8599C83.713 75.5116 83.6382 75.1684 83.5591 74.8306C82.545 70.5027 80.403 65.3746 75.46 63.6225C72.499 62.5729 69.7225 63.3523 67.5796 64.876C65.6059 66.2794 64.0343 68.374 62.7588 70.5465C60.1793 74.9399 57.9626 81.1477 56.0809 87.8071C52.2858 101.238 49.4936 117.842 48.0753 129.019C47.7654 131.461 49.495 133.691 51.9385 133.999C54.382 134.307 56.614 132.577 56.9239 130.135C58.3132 119.186 61.0368 103.064 64.6645 90.2244C66.4943 83.7488 68.4656 78.4355 70.4509 75.0541C71.4328 73.3816 72.2226 72.5258 72.7105 72.1649C73.1803 72.5261 74.123 73.6613 74.8745 76.8686C75.7107 80.4373 75.9802 85.2638 75.7677 90.6155C75.4986 97.3918 74.485 104.467 73.2259 110.093C72.2993 113.352 71.4634 116.219 70.7264 118.499C69.9907 120.776 71.1837 123.225 73.4296 124.05C75.6755 124.875 78.1736 123.781 79.09 121.57C80.0854 119.17 81.0385 115.96 81.8696 112.299C82.2591 110.928 82.6603 109.503 83.0711 108.045L83.0724 108.04C83.3302 107.124 83.5918 106.196 83.8566 105.258C85.6101 99.0508 87.5329 92.3682 89.5472 86.2791C91.5811 80.1313 93.6264 74.846 95.577 71.3212C96.2758 70.0585 96.8759 69.1838 97.3503 68.6157L97.3513 68.6175C97.7412 69.3429 98.1252 70.5833 98.3457 72.4911C98.7862 76.3029 98.4525 81.5907 97.571 87.7311C95.953 99.0027 92.6739 111.999 90.2461 121.621C90.0443 122.421 89.8483 123.198 89.6597 123.948C89.1018 126.167 90.3153 128.447 92.4678 129.224C94.6203 130.001 97.0128 129.022 98.0045 126.96C100.947 120.839 105.222 112.613 110.091 103.245C110.668 102.135 111.253 101.009 111.845 99.8684C112.058 102.439 112.381 104.791 112.831 106.845C113.247 108.744 113.808 110.56 114.596 112.111C115.359 113.613 116.55 115.292 118.451 116.289C123.356 118.862 128.233 116.36 131.525 113.74C135.04 110.943 138.511 106.697 141.689 102.107C148.099 92.8488 154.103 81.0244 157.682 72.9752C158.682 70.7251 157.669 68.0918 155.418 67.0934C153.167 66.0951 150.532 67.1097 149.531 69.3598C146.077 77.1301 140.332 88.4065 134.356 97.0377C131.34 101.393 128.459 104.788 125.972 106.768C124.732 107.754 123.816 108.206 123.227 108.368C122.999 108.431 122.854 108.445 122.76 108.439C122.708 108.36 122.636 108.242 122.55 108.071C122.229 107.439 121.87 106.421 121.544 104.932C120.893 101.964 120.516 97.807 120.445 92.7255C120.403 89.6545 120.472 86.3131 120.646 82.7871C125.275 73.6892 129.928 64.3016 134.061 55.3534C140.061 42.3641 145.104 30.0081 147.319 20.7109C148.402 16.1623 148.969 11.7309 148.211 8.16815C147.815 6.30655 146.993 4.37444 145.394 2.86854C143.742 1.31281 141.673 0.600412 139.539 0.494411ZM125.963 51.6218C125.087 53.518 124.187 55.4355 123.268 57.3674C123.305 57.1263 123.342 56.8853 123.379 56.6443C125.377 43.7123 128.254 31.1696 131.617 22.0163C133.31 17.408 135.034 13.9191 136.669 11.6917C138.188 9.62123 139.027 9.42132 139.113 9.40088C139.116 9.40013 139.118 9.39962 139.119 9.39927C139.195 9.40388 139.253 9.41077 139.296 9.41772C139.345 9.51739 139.418 9.70586 139.486 10.0266C139.812 11.5607 139.662 14.3704 138.642 18.652C136.65 27.0154 131.942 38.6769 125.963 51.6218ZM139.4 9.44295C139.4 9.44295 139.393 9.4413 139.383 9.43654C139.396 9.44031 139.4 9.44295 139.4 9.44295ZM122.6 108.395L122.629 108.411C122.619 108.406 122.612 108.402 122.606 108.399L122.6 108.395Z" fill="white"/>
<path d="M73.7919 41.4336C71.2554 41.292 69.0829 43.2322 68.9394 45.7674C68.796 48.3025 70.736 50.4725 73.2725 50.6142C76.1681 50.7759 79.4815 51.1636 83.3924 51.6212L84.3175 51.7293C88.5779 52.2266 93.4103 52.7733 98.7449 53.117C101.28 53.2803 103.469 51.3587 103.634 48.8248C103.799 46.291 101.878 44.1045 99.3429 43.9412C94.2647 43.614 89.6358 43.0921 85.3908 42.5965L84.3883 42.4792C80.5737 42.0325 76.9815 41.6118 73.7919 41.4336Z" fill="white"/>
</svg>
