<svg width="230" height="121" viewBox="0 0 230 121" fill="none" xmlns="http://www.w3.org/2000/svg">
<path fill-rule="evenodd" clip-rule="evenodd" d="M103.273 0.740516C102.297 15.4709 99.903 29.8923 96.7248 43.434C122.247 43.2097 148.558 42.7318 170.4 41.9021L170.694 49.6112C148.194 50.466 121.002 50.9483 94.8034 51.1655C94.5437 52.1557 94.2803 53.1404 94.0134 54.1192L99.9681 56.778C99.1864 58.5198 98.2384 61.8027 97.3187 66.3079C96.4155 70.7325 95.5859 76.1004 94.9685 81.8649C94.0667 90.2854 93.6354 99.3887 94.0411 107.531C97.794 102.601 101.732 96.399 105.187 90.5393C107.771 86.1558 110.012 82.091 111.607 79.121C112.404 77.6371 113.039 76.429 113.473 75.5943C113.69 75.177 113.857 74.8532 113.969 74.635C114.002 74.5696 114.031 74.5137 114.055 74.4676L114.095 74.3886L114.133 74.3134L114.135 74.3103L114.135 74.31L114.135 74.3098L114.136 74.3104L121.396 76.7148C120.694 80.7107 119.478 88.327 118.419 96.1561C119.601 94.0531 120.817 91.9524 122.028 89.9227C124.819 85.2451 127.664 80.8114 130.114 77.4583C131.332 75.7913 132.512 74.309 133.583 73.1796C134.116 72.6173 134.688 72.071 135.282 71.6198C135.8 71.2256 136.682 70.6295 137.811 70.4019L142.412 74.6778C142.034 77.5871 141.06 85.3593 140.096 93.8404C140.371 93.3203 140.649 92.8012 140.929 92.284C143.366 87.782 146.037 83.3285 148.716 79.6737C151.284 76.1689 154.24 72.8568 157.361 71.2966L162.916 75.3282C161.807 82.5604 160.078 96.9757 159.379 106.868C163.103 104.009 167.085 100.79 171.059 97.3008C171.596 82.9819 173.473 69.5219 176.724 57.9842C181.227 42.0071 188.605 28.8867 199.574 22.9771L204.439 23.9699C208.186 28.6693 209.713 34.2643 209.706 40.1739L209.841 40.167C218.525 39.7227 225.833 39.2412 228.648 38.7427L230 46.3387C226.592 46.9422 218.693 47.439 210.237 47.8717C205.537 48.1121 200.433 48.3425 195.655 48.5581L195.648 48.5584L195.647 48.5585L195.646 48.5585L195.645 48.5585L195.636 48.5589C192.972 48.6792 190.408 48.7949 188.073 48.9052C186.622 52.2731 185.316 56.0036 184.17 60.0717C181.705 68.8207 180.053 78.8655 179.234 89.6757C180.181 88.7317 181.117 87.775 182.038 86.807C191.627 76.7202 199.016 65.912 200.733 55.7949L208.359 57.0829C206.243 69.5448 197.5 81.7542 187.65 92.1156C184.763 95.1517 181.739 98.0725 178.69 100.841C178.623 103.79 178.613 106.778 178.662 109.797C181.793 108.715 185.38 106.955 188.945 104.697C194.257 101.332 199.023 97.1721 201.792 93.2567L208.112 97.7032C204.568 102.716 198.918 107.518 193.092 111.209C187.297 114.88 180.831 117.766 175.465 118.527L171.056 114.846C170.969 112.407 170.918 109.981 170.902 107.57C166.098 111.531 161.472 115.025 157.481 117.902L151.35 114.874C151.203 109.113 152.43 96.4565 153.685 86.032C151.694 88.9522 149.668 92.3761 147.734 95.9491C143.026 104.648 139.074 113.829 137.659 117.958L130.14 116.474C130.595 109.041 131.98 96.489 133.14 86.6971C131.708 88.8869 130.194 91.3213 128.674 93.8688C123.165 103.1 117.885 113.284 116.163 118.187L108.647 116.86C108.713 111.982 109.545 104.265 110.552 96.636C105.532 104.982 99.267 114.402 93.6951 119.613L87.2262 117.375C85.5887 106.553 86.0052 92.9305 87.278 81.0455C87.5884 78.1479 87.9515 75.3354 88.3527 72.6713C81.2413 93.7368 73.1872 110.655 67.742 120.232L60.5475 117.801C62.7407 101.973 63.1756 90.4977 62.8272 78.0436C49.56 90.0926 43.5938 102.634 39.9974 119.148L32.3763 117.891C36.0289 86.0225 38.1058 46.3293 35.2555 26.9304L42.908 25.8117C43.6278 30.7105 44.0495 36.7573 44.2246 43.5585C57.6953 43.6166 72.9673 43.6038 88.761 43.4961C92.0646 29.8117 94.5659 15.1744 95.5559 0.231812L103.273 0.740516ZM44.3203 51.2737C57.2023 51.3288 71.7286 51.3192 86.7863 51.224C81.9366 69.2166 75.8656 85.2381 70.3301 97.684C70.8652 88.1066 70.7115 79.488 70.2475 69.8376L64.0049 66.982C54.4633 74.4132 47.6837 81.9529 42.7356 90.1719C43.7212 76.7186 44.324 63.1828 44.3203 51.2737ZM195.321 40.8504L195.394 40.8472C197.543 40.7503 199.75 40.6509 201.97 40.5481C202.024 37.2059 201.452 34.262 200.235 31.7227C197.293 33.9734 194.588 37.0881 192.158 40.9933C193.194 40.9462 194.25 40.8987 195.321 40.8504ZM140.009 77.7266C140.035 77.7115 140.048 77.7021 140.048 77.7011C140.048 77.7006 140.044 77.7027 140.036 77.7079C140.033 77.7098 140.03 77.7122 140.026 77.7149C140.021 77.7182 140.015 77.7221 140.009 77.7266Z" fill="white"/>
<path d="M0 50.5064C4.54732 50.7827 13.1768 51.0306 26.6878 51.1656L26.7653 43.4512C13.2663 43.3163 4.80601 43.0694 0.47025 42.806L0 50.5064Z" fill="white"/>
<path d="M223.981 111.218C220.025 113.541 211.985 118.203 208.747 120.056L204.9 113.363C208.109 111.528 216.123 106.88 220.058 104.57L223.981 111.218Z" fill="white"/>
<path d="M109.692 39.4869C112.68 34.281 118.712 23.9388 122.481 17.4748C123.31 16.0546 124.029 14.8215 124.582 13.8714L117.895 9.99477C117.354 10.9237 116.652 12.1276 115.843 13.5153L115.805 13.5796C112.038 20.0396 105.983 30.4213 102.98 35.6543L109.692 39.4869Z" fill="white"/>
</svg>
