<svg width="114" height="119" viewBox="0 0 114 119" fill="none" xmlns="http://www.w3.org/2000/svg">
<path d="M3 6.9558C3.15596 11.9854 3.31191 17.0346 3.46787 22.0642C14.1705 20.4657 20.1359 19.5689 30.936 18.5161C36.609 17.9508 44.8357 20.2708 50.1188 23.2145C53.277 24.9885 53.4719 27.5034 52.1853 30.759C49.9239 36.4515 44.1729 37.9915 38.8119 39.5901C28.2067 42.7482 16.6268 43.372 5.5733 43.0211C6.47006 59.6306 7.11339 63.6271 9.10186 81.9522" stroke="white" stroke-width="5.84843" stroke-miterlimit="10"/>
<path d="M32.4565 41.4421C37.5642 68.0719 37.1353 92.5768 37.1353 118.446" stroke="white" stroke-width="5.84843" stroke-miterlimit="10"/>
<path d="M37.1353 61.1122C52.926 60.4884 57.8387 59.7281 68.9117 58.3829C67.3911 36.0419 64.8568 25.1444 64.0575 0.425056" stroke="white" stroke-width="5.84843" stroke-miterlimit="10"/>
<path d="M67.8005 45.0681C78.9905 43.9569 88.2505 43.84 96.3019 44.5028C113.457 45.9065 115.192 65.3427 99.0896 69.6705C87.2953 72.8481 72.2843 71.7369 59.8467 72.0683C61.6597 85.6756 62.0886 97.4895 62.0886 99.7509" stroke="white" stroke-width="5.84843" stroke-miterlimit="10"/>
</svg>
